<?xml version="1.0" standalone="no"?>
<!DOCTYPE svg PUBLIC "-//W3C//DTD SVG 20010904//EN"
        "http://www.w3.org/TR/2001/REC-SVG-20010904/DTD/svg10.dtd">
<svg version="1.0" xmlns="http://www.w3.org/2000/svg"
     width="1772.000000pt" height="1772.000000pt" viewBox="0 0 1772.000000 1772.000000"
     preserveAspectRatio="xMidYMid meet">
    <metadata>
        Created by potrace 1.14, written by Peter Selinger 2001-2017
    </metadata>
    <g transform="translate(0.000000,1772.000000) scale(0.100000,-0.100000)"
       fill="#000000" stroke="none">
        <path d="M2569 17660 c-31 -3 -62 -10 -70 -16 -8 -6 -27 -14 -44 -18 -49 -12
-157 -91 -202 -150 -24 -30 -43 -59 -43 -64 0 -5 -8 -20 -19 -33 -10 -13 -27
-58 -37 -99 -18 -70 -19 -132 -24 -890 l-5 -815 -830 -5 c-633 -4 -837 -8
-858 -17 -16 -7 -41 -13 -56 -13 -16 0 -34 -7 -41 -15 -7 -8 -36 -27 -64 -41
-28 -14 -64 -37 -79 -52 -34 -32 -117 -156 -117 -174 0 -7 -8 -26 -17 -43 -33
-60 -29 -284 7 -340 4 -5 13 -29 20 -53 23 -74 171 -214 250 -237 14 -4 33
-15 44 -24 16 -14 102 -17 880 -21 473 -3 862 -7 863 -8 2 -1 4 -2683 6 -5959
3 -5583 4 -5963 20 -6032 10 -41 24 -82 32 -91 8 -9 15 -24 15 -34 0 -24 171
-193 203 -201 14 -4 28 -13 31 -21 3 -8 16 -14 29 -14 14 0 44 -7 67 -15 38
-13 733 -15 6024 -15 3289 0 5986 -4 5993 -8 10 -6 13 -205 15 -867 3 -833 4
-861 23 -900 87 -176 245 -297 410 -315 86 -9 205 -1 226 16 8 6 33 16 57 23
23 6 42 16 42 22 0 5 15 16 33 24 87 38 182 174 214 309 16 63 18 164 23 886
3 448 9 821 13 828 6 9 183 12 825 12 670 0 821 2 837 13 11 8 38 15 60 15 28
1 44 7 54 22 7 11 19 20 26 20 43 0 185 120 185 156 0 6 9 22 19 36 11 14 31
55 45 93 22 57 26 84 26 179 0 62 -4 116 -9 121 -5 6 -18 37 -31 70 -40 110
-137 213 -254 271 l-80 39 -860 3 c-588 2 -864 7 -873 14 -11 8 -13 1138 -13
5944 0 3477 -4 5935 -9 5938 -5 3 -11 23 -14 43 -12 81 -20 109 -37 128 -10
11 -23 30 -30 43 -33 65 -117 144 -186 176 -17 7 -35 19 -38 25 -4 6 -26 11
-49 11 -23 0 -51 7 -61 15 -17 13 -754 15 -5974 15 -4085 0 -5959 3 -5973 10
-19 10 -19 30 -19 778 -1 777 -6 923 -34 977 -9 17 -16 35 -16 41 0 6 -12 27
-27 47 -16 19 -37 47 -48 62 -30 41 -122 109 -195 143 -69 32 -164 43 -281 32z
m11941 -7911 l0 -4770 -1630 1629 c-896 896 -1646 1640 -1667 1654 -77 51 -93
58 -175 79 -67 18 -100 21 -171 16 -49 -3 -94 -10 -100 -15 -7 -5 -33 -15 -59
-22 -27 -7 -48 -16 -48 -20 0 -5 -12 -12 -27 -18 -16 -5 -303 -284 -645 -626
-340 -339 -624 -616 -632 -616 -7 0 -501 491 -1097 1091 -596 600 -1111 1112
-1144 1138 -111 86 -169 108 -318 118 -56 4 -96 0 -145 -12 -152 -40 -48 57
-1818 -1712 -898 -898 -1636 -1633 -1639 -1633 -3 0 -5 1910 -5 4245 l0 4245
5660 0 5660 0 0 -4771z m-5830 -3534 c1327 -1328 1911 -1906 1950 -1929 30
-19 82 -41 115 -51 33 -9 74 -20 90 -25 38 -11 131 -4 208 16 157 40 276 143
348 300 27 60 32 83 36 180 5 101 4 117 -21 191 -15 44 -42 103 -61 129 -19
27 -303 317 -630 644 -327 328 -595 602 -595 610 0 16 769 790 785 790 5 0
821 -811 1812 -1802 l1803 -1803 0 -126 c0 -90 -4 -129 -12 -135 -8 -5 -2456
-7 -5668 -4 l-5655 5 0 657 0 658 1795 1795 c987 987 1797 1795 1800 1795 3 0
858 -853 1900 -1895z"/>
        <path d="M11360 13518 c-156 -9 -333 -32 -405 -52 -157 -44 -269 -79 -293 -92
-15 -7 -31 -14 -35 -14 -12 0 -199 -91 -217 -105 -8 -7 -35 -23 -60 -36 -92
-49 -279 -196 -396 -313 -100 -101 -294 -339 -294 -361 0 -4 -8 -19 -19 -33
-18 -27 -95 -174 -125 -242 -65 -148 -124 -351 -144 -495 -5 -38 -11 -81 -13
-95 -8 -60 -2 -454 9 -545 11 -84 40 -212 82 -350 32 -107 140 -338 208 -442
113 -174 247 -333 381 -452 383 -337 817 -509 1336 -528 119 -4 172 -1 383 26
343 45 738 231 1034 489 242 210 461 519 563 792 47 126 59 163 76 230 44 168
61 293 66 487 5 164 2 214 -17 345 -27 188 -85 397 -155 553 -12 28 -24 55
-26 60 -8 20 -91 161 -127 216 -81 124 -94 141 -150 206 -112 130 -244 256
-367 350 -103 79 -384 235 -447 248 -18 4 -37 11 -43 15 -15 12 -147 54 -245
79 -90 22 -176 36 -323 51 -48 5 -91 11 -95 13 -4 1 -68 -1 -142 -5z m210
-1069 c132 -25 186 -41 264 -78 227 -106 400 -270 506 -481 35 -69 80 -201 80
-232 0 -13 4 -28 10 -34 15 -15 24 -240 12 -304 -47 -259 -138 -439 -306 -606
-147 -145 -309 -234 -501 -273 -141 -29 -229 -35 -305 -21 -36 6 -89 16 -118
21 -180 32 -366 136 -519 291 -179 182 -293 458 -293 709 0 78 28 246 53 319
23 66 88 192 136 263 52 77 178 204 251 254 106 72 281 147 383 164 152 26
242 28 347 8z"/>
    </g>
</svg>
